<svg width="32" height="32" viewBox="0 0 32 32" fill="none" xmlns="http://www.w3.org/2000/svg">
<path d="M16.3439 6.43214C16.2518 6.34407 16.1294 6.29492 16.002 6.29492C15.8746 6.29492 15.7521 6.34407 15.66 6.43214L4.27617 17.3071C4.22782 17.3533 4.18936 17.4089 4.16311 17.4704C4.13686 17.532 4.12336 17.5982 4.12344 17.6651L4.12158 27.8716C4.12158 28.3964 4.33005 28.8997 4.70114 29.2708C5.07222 29.6419 5.57552 29.8503 6.10031 29.8503H12.0427C12.3051 29.8503 12.5567 29.7461 12.7422 29.5606C12.9278 29.375 13.032 29.1234 13.032 28.861V20.4514C13.032 20.3202 13.0841 20.1944 13.1769 20.1016C13.2697 20.0088 13.3955 19.9567 13.5267 19.9567H18.4735C18.6047 19.9567 18.7305 20.0088 18.8233 20.1016C18.9161 20.1944 18.9682 20.3202 18.9682 20.4514V28.861C18.9682 29.1234 19.0724 29.375 19.258 29.5606C19.4435 29.7461 19.6952 29.8503 19.9576 29.8503H25.8974C26.4222 29.8503 26.9255 29.6419 27.2966 29.2708C27.6677 28.8997 27.8762 28.3964 27.8762 27.8716V17.6651C27.8762 17.5982 27.8627 17.532 27.8365 17.4704C27.8102 17.4089 27.7718 17.3533 27.7234 17.3071L16.3439 6.43214Z" fill="white"/>
<path d="M30.5258 15.2668L25.9005 10.8418V4.12716C25.9005 3.86477 25.7963 3.61312 25.6108 3.42758C25.4252 3.24204 25.1736 3.1378 24.9112 3.1378H21.9431C21.6807 3.1378 21.429 3.24204 21.2435 3.42758C21.058 3.61312 20.9537 3.86477 20.9537 4.12716V6.10588L17.3722 2.68146C17.0371 2.3426 16.5387 2.14844 16.0001 2.14844C15.4634 2.14844 14.9662 2.3426 14.6311 2.68207L1.47876 15.2655C1.09415 15.6365 1.04591 16.2468 1.3959 16.6488C1.48379 16.7502 1.5914 16.8327 1.71219 16.8913C1.83297 16.9498 1.96441 16.9832 2.0985 16.9893C2.23258 16.9954 2.36651 16.9742 2.49214 16.9269C2.61777 16.8797 2.73246 16.8073 2.82924 16.7143L15.66 4.45365C15.7521 4.36559 15.8746 4.31643 16.002 4.31643C16.1294 4.31643 16.2519 4.36559 16.3439 4.45365L29.1759 16.7143C29.365 16.8956 29.6181 16.9945 29.88 16.9894C30.1418 16.9843 30.391 16.8756 30.5728 16.6871C30.9525 16.2938 30.9209 15.6446 30.5258 15.2668Z" fill="white"/>
</svg>
