<svg width="72" height="73" viewBox="0 0 72 73" fill="none" xmlns="http://www.w3.org/2000/svg">
<path d="M52.875 60.2149C52.6315 60.2154 52.3945 60.1364 52.2 59.9899C38.3828 49.6275 39.3289 25.1993 39.375 24.1643C39.388 23.8748 39.5123 23.6015 39.7219 23.4013C39.9315 23.2012 40.2102 23.0896 40.5 23.0899H44.5342L36 14.5557L27.4658 23.0899H31.5C31.7898 23.0896 32.0685 23.2012 32.2781 23.4013C32.4877 23.6015 32.612 23.8748 32.625 24.1643C32.6723 25.1993 33.6184 49.6275 19.8 59.9899C19.6818 60.0785 19.5473 60.143 19.4042 60.1797C19.2611 60.2164 19.1122 60.2245 18.9659 60.2036C18.8196 60.1827 18.6789 60.1332 18.5518 60.0579C18.4247 59.9827 18.3136 59.8831 18.225 59.7649C18.1364 59.6467 18.0719 59.5122 18.0352 59.3691C17.9985 59.226 17.9904 59.0771 18.0113 58.9308C18.0535 58.6354 18.2113 58.3689 18.45 58.1899C29.7596 49.7074 30.411 30.1369 30.3953 25.3399H24.75C24.5275 25.3399 24.3101 25.2739 24.1251 25.1502C23.9401 25.0266 23.796 24.8509 23.7109 24.6454C23.6257 24.4399 23.6035 24.2137 23.6468 23.9955C23.6902 23.7773 23.7973 23.5769 23.9546 23.4195L35.2046 12.1695C35.4156 11.9586 35.7017 11.8401 36 11.8401C36.2983 11.8401 36.5844 11.9586 36.7954 12.1695L48.0454 23.4195C48.2027 23.5769 48.3098 23.7773 48.3532 23.9955C48.3965 24.2137 48.3743 24.4399 48.2891 24.6454C48.204 24.8509 48.0599 25.0266 47.8749 25.1502C47.6899 25.2739 47.4725 25.3399 47.25 25.3399H41.6059C41.5924 30.1392 42.2527 49.7164 53.55 58.1899C53.7389 58.3316 53.8784 58.5291 53.9488 58.7545C54.0192 58.9798 54.0169 59.2217 53.9423 59.4457C53.8676 59.6697 53.7243 59.8645 53.5328 60.0026C53.3412 60.1406 53.1111 60.2149 52.875 60.2149Z" fill="#5393D7"/>
<path d="M68.6248 60.2149C68.3814 60.2154 68.1444 60.1364 67.9498 59.9899C54.1326 49.6275 55.0787 25.1993 55.1248 24.1643C55.1379 23.8748 55.2621 23.6015 55.4717 23.4013C55.6813 23.2012 55.96 23.0896 56.2498 23.0899H60.2841L51.7498 14.5557L48.0452 18.2603C47.833 18.4652 47.5489 18.5786 47.2539 18.576C46.9589 18.5735 46.6768 18.4552 46.4682 18.2466C46.2596 18.038 46.1413 17.7558 46.1387 17.4609C46.1362 17.1659 46.2495 16.8817 46.4545 16.6695L50.9545 12.1695C51.1654 11.9586 51.4515 11.8401 51.7498 11.8401C52.0482 11.8401 52.3343 11.9586 52.5452 12.1695L63.7952 23.4195C63.9525 23.5769 64.0596 23.7773 64.103 23.9955C64.1464 24.2137 64.1241 24.4399 64.039 24.6454C63.9539 24.8509 63.8097 25.0266 63.6247 25.1502C63.4398 25.2739 63.2223 25.3399 62.9998 25.3399H57.3557C57.3422 30.1392 58.0026 49.7164 69.2998 58.1899C69.4887 58.3316 69.6283 58.5291 69.6987 58.7545C69.7691 58.9798 69.7668 59.2217 69.6921 59.4457C69.6174 59.6697 69.4742 59.8645 69.2826 60.0026C69.0911 60.1406 68.861 60.2149 68.6248 60.2149Z" fill="#5393D7"/>
<path d="M3.375 60.2149C3.13888 60.2149 2.90875 60.1406 2.7172 60.0026C2.52565 59.8645 2.3824 59.6697 2.30773 59.4457C2.23306 59.2217 2.23077 58.9798 2.30117 58.7545C2.37157 58.5291 2.51111 58.3316 2.7 58.1899C14.0096 49.7074 14.661 30.1369 14.6452 25.3399H9C8.77753 25.3399 8.56007 25.2739 8.37511 25.1502C8.19015 25.0266 8.04599 24.8509 7.96086 24.6454C7.87573 24.4399 7.85345 24.2137 7.89684 23.9955C7.94023 23.7773 8.04734 23.5769 8.20462 23.4195L19.4546 12.1695C19.6656 11.9586 19.9517 11.8401 20.25 11.8401C20.5483 11.8401 20.8344 11.9586 21.0454 12.1695L25.5454 16.6695C25.7503 16.8817 25.8637 17.1659 25.8611 17.4609C25.8586 17.7558 25.7403 18.038 25.5317 18.2466C25.3231 18.4552 25.0409 18.5735 24.7459 18.576C24.451 18.5786 24.1668 18.4652 23.9546 18.2603L20.25 14.5557L11.7157 23.0899H15.75C16.0398 23.0896 16.3185 23.2012 16.5281 23.4013C16.7377 23.6015 16.862 23.8748 16.875 24.1643C16.9222 25.1993 17.8684 49.6275 4.05 59.9899C3.8555 60.1364 3.6185 60.2154 3.375 60.2149Z" fill="#5393D7"/>
</svg>
