<svg width="72" height="73" viewBox="0 0 72 73" fill="none" xmlns="http://www.w3.org/2000/svg">
<path d="M36 29.8399C34.9436 29.8399 10.125 29.7758 10.125 24.2149C10.125 20.4765 21.3592 19.2323 28.0564 18.825C28.3537 18.8095 28.6453 18.9112 28.8684 19.1083C29.0916 19.3054 29.2286 19.5822 29.25 19.8791C29.2682 20.1769 29.1673 20.4697 28.9696 20.6931C28.772 20.9165 28.4936 21.0523 28.1959 21.0705C17.5084 21.7219 13.068 23.4105 12.4189 24.2205C13.3852 25.4783 21.7564 27.5955 36.0022 27.5955C50.2481 27.5955 58.6147 25.4794 59.5856 24.2205C58.9365 23.415 54.4939 21.7264 43.8086 21.0705C43.5103 21.0523 43.2313 20.9163 43.0332 20.6925C42.8351 20.4686 42.734 20.1753 42.7523 19.8769C42.7705 19.5785 42.9064 19.2996 43.1303 19.1015C43.3541 18.9034 43.6475 18.8023 43.9459 18.8205C50.6408 19.2323 61.875 20.4765 61.875 24.2149C61.875 29.7758 37.0564 29.8399 36 29.8399Z" fill="#5393D7"/>
<path d="M31.5 70.3398C31.2016 70.3398 30.9155 70.2213 30.7045 70.0103C30.4935 69.7993 30.375 69.5132 30.375 69.2148V55.1523C21.7823 50.6017 15.9199 47.4303 12.9454 45.7214C12.0892 45.2275 11.3779 44.5171 10.8829 43.6615C10.3878 42.806 10.1265 41.8353 10.125 40.8468V24.2148C10.125 23.9164 10.2435 23.6303 10.4545 23.4193C10.6655 23.2083 10.9516 23.0898 11.25 23.0898C11.5484 23.0898 11.8345 23.2083 12.0455 23.4193C12.2565 23.6303 12.375 23.9164 12.375 24.2148V40.8468C12.3752 41.4395 12.5312 42.0217 12.8274 42.5351C13.1236 43.0485 13.5495 43.475 14.0625 43.7718C17.0831 45.5065 23.1278 48.7735 32.0231 53.4828C32.2045 53.5781 32.3564 53.721 32.4625 53.8963C32.5685 54.0715 32.6247 54.2724 32.625 54.4773V67.1898L39.375 62.9711V54.3873C39.375 54.1852 39.4294 53.9868 39.5325 53.813C39.6357 53.6392 39.7837 53.4964 39.9611 53.3996L57.8677 43.6312C58.3996 43.3407 58.8435 42.9123 59.1527 42.3911C59.4619 41.8699 59.625 41.2751 59.625 40.6691V24.2148C59.625 23.9164 59.7435 23.6303 59.9545 23.4193C60.1655 23.2083 60.4516 23.0898 60.75 23.0898C61.0484 23.0898 61.3345 23.2083 61.5455 23.4193C61.7565 23.6303 61.875 23.9164 61.875 24.2148V40.6691C61.8755 41.6788 61.6042 42.6702 61.0896 43.539C60.5749 44.4077 59.8359 45.122 58.95 45.6067L41.625 55.0556V63.5898C41.625 63.7806 41.5765 63.9683 41.484 64.1352C41.3915 64.302 41.2581 64.4427 41.0962 64.5438L32.0963 70.1688C31.9175 70.2805 31.7108 70.3398 31.5 70.3398Z" fill="#5393D7"/>
<path d="M36 25.3399C34.8875 25.3399 33.7999 25.01 32.8749 24.3919C31.9499 23.7738 31.2289 22.8953 30.8032 21.8675C30.3774 20.8397 30.266 19.7087 30.4831 18.6175C30.7001 17.5264 31.2359 16.5241 32.0225 15.7374C32.8092 14.9508 33.8115 14.415 34.9026 14.198C35.9938 13.9809 37.1248 14.0923 38.1526 14.5181C39.1804 14.9438 40.0589 15.6648 40.677 16.5898C41.2951 17.5148 41.625 18.6024 41.625 19.7149C41.6232 21.2062 41.03 22.6359 39.9755 23.6904C38.921 24.7449 37.4913 25.3381 36 25.3399ZM36 16.3399C35.3325 16.3399 34.68 16.5378 34.125 16.9087C33.5699 17.2795 33.1374 17.8066 32.8819 18.4233C32.6265 19.04 32.5596 19.7186 32.6899 20.3733C32.8201 21.028 33.1415 21.6294 33.6135 22.1014C34.0855 22.5734 34.6869 22.8948 35.3416 23.0251C35.9963 23.1553 36.6749 23.0884 37.2916 22.833C37.9083 22.5776 38.4354 22.145 38.8062 21.59C39.1771 21.0349 39.375 20.3824 39.375 19.7149C39.375 18.8198 39.0194 17.9614 38.3865 17.3284C37.7536 16.6955 36.8951 16.3399 36 16.3399Z" fill="#5393D7"/>
<path d="M19.125 17.4648C18.0125 17.4648 16.9249 17.1349 15.9999 16.5168C15.0749 15.8987 14.3539 15.0202 13.9282 13.9924C13.5024 12.9646 13.391 11.8336 13.6081 10.7424C13.8251 9.65132 14.3609 8.64904 15.1475 7.86237C15.9342 7.0757 16.9365 6.53997 18.0276 6.32293C19.1188 6.10588 20.2498 6.21728 21.2776 6.64302C22.3054 7.06876 23.1839 7.78973 23.802 8.71476C24.4201 9.63979 24.75 10.7273 24.75 11.8398C24.7482 13.3311 24.155 14.7608 23.1005 15.8153C22.046 16.8698 20.6163 17.463 19.125 17.4648ZM19.125 8.46484C18.4575 8.46484 17.805 8.66278 17.25 9.03363C16.6949 9.40448 16.2624 9.93159 16.0069 10.5483C15.7515 11.1649 15.6846 11.8435 15.8149 12.4982C15.9451 13.1529 16.2665 13.7543 16.7385 14.2263C17.2105 14.6983 17.8119 15.0197 18.4666 15.15C19.1213 15.2802 19.7999 15.2133 20.4166 14.9579C21.0333 14.7025 21.5604 14.2699 21.9312 13.7149C22.3021 13.1598 22.5 12.5073 22.5 11.8398C22.5 10.9447 22.1444 10.0863 21.5115 9.45336C20.8786 8.82042 20.0201 8.46484 19.125 8.46484Z" fill="#5393D7"/>
<path d="M50.625 14.0898C49.5125 14.0898 48.4249 13.7599 47.4999 13.1418C46.5749 12.5237 45.8539 11.6452 45.4282 10.6174C45.0024 9.5896 44.891 8.4586 45.1081 7.36746C45.3251 6.27632 45.8609 5.27404 46.6475 4.48737C47.4342 3.7007 48.4365 3.16497 49.5276 2.94793C50.6188 2.73088 51.7498 2.84228 52.7776 3.26802C53.8054 3.69376 54.6839 4.41473 55.302 5.33976C55.9201 6.26479 56.25 7.35232 56.25 8.46484C56.2482 9.95614 55.655 11.3858 54.6005 12.4403C53.546 13.4948 52.1163 14.088 50.625 14.0898ZM50.625 5.08984C49.9575 5.08984 49.305 5.28778 48.75 5.65863C48.1949 6.02948 47.7624 6.55659 47.5069 7.17329C47.2515 7.78999 47.1846 8.46859 47.3149 9.12327C47.4451 9.77796 47.7665 10.3793 48.2385 10.8513C48.7105 11.3233 49.3119 11.6447 49.9666 11.775C50.6213 11.9052 51.2999 11.8383 51.9166 11.5829C52.5333 11.3275 53.0604 10.8949 53.4312 10.3399C53.8021 9.78488 54 9.13236 54 8.46484C54 7.56974 53.6444 6.71129 53.0115 6.07836C52.3786 5.44542 51.5201 5.08984 50.625 5.08984Z" fill="#5393D7"/>
</svg>
